<?xml version="1.0" standalone="no"?>
<!DOCTYPE svg PUBLIC "-//W3C//DTD SVG 20010904//EN" "http://www.w3.org/TR/2001/REC-SVG-20010904/DTD/svg10.dtd">
<!-- Created using Krita: https://krita.org -->
<svg xmlns="http://www.w3.org/2000/svg" 
    xmlns:xlink="http://www.w3.org/1999/xlink"
    xmlns:krita="http://krita.org/namespaces/svg/krita"
    xmlns:sodipodi="http://sodipodi.sourceforge.net/DTD/sodipodi-0.dtd"
    width="120pt"
    height="120pt"
    viewBox="0 0 120 120">
<defs/>
<path id="shape0" transform="translate(9.75420186384083, 13.3761597427663)" fill="#DECBB7" fill-rule="evenodd" stroke="#DECBB7" stroke-width="0.2496" stroke-linecap="square" stroke-linejoin="bevel" d="M37.4927 97.8693C38.2944 96.6231 38.6329 95.7264 38.683 95.127C38.7994 93.734 38.8312 91.275 38.7784 87.75C32.119 89.1094 25.6237 89.0674 20.1043 80.6931C17.3925 71.9218 13.0838 73.0142 13.347 71.2396C17.4544 68.5524 21.4167 72.5951 23.7992 75.9664C26.6966 78.6886 28.3498 82.2026 38.7309 80.1625C38.7594 76.9485 39.2191 74.6399 40.1099 73.2368C28.5425 70.9255 20.275 65.5777 17.4927 58.2829C13.7348 48.4302 15.2945 39.2708 22.1718 30.8048C18.5786 23.5868 22.3862 16.7852 22.9081 15.7622C30.3672 15.5965 33.9169 19.3401 38.1085 22.442C45.6656 20.0353 53.8947 19.6654 63.1443 22.3894C66.5839 20.2946 69.3668 15.7171 77.9765 15.7096C80.945 20.0074 81.2956 24.9866 79.0284 30.647C87.1959 41.5732 86.5597 51.053 83.4989 58.2866C79.5558 67.6052 68.2444 72.4493 61.0405 73.1448C62.1474 75.407 62.5255 77.3906 62.3028 78.5097C61.8872 91.1309 61.8175 97.8793 64.1691 98.313C65.4008 98.5402 64.5391 100.893 77.6197 93.609C91.4988 85.0105 101.426 68.5722 101.03 48.8209C100.422 18.4922 72.8581 -0.671346 50.2458 0.0179976C22.5614 0.861962 0.84969 22.4564 0.0548035 48.894C-0.823308 67.5667 8.77512 89.3478 34.3314 98.5555C34.9299 98.8534 35.9939 98.6452 37.4927 97.8693Z" sodipodi:nodetypes="csccccccsccccccsccscssccc"/>
</svg>
