<?xml version="1.0" standalone="no"?>
<!DOCTYPE svg PUBLIC "-//W3C//DTD SVG 20010904//EN" "http://www.w3.org/TR/2001/REC-SVG-20010904/DTD/svg10.dtd">
<!-- Created using Krita: https://krita.org -->
<svg xmlns="http://www.w3.org/2000/svg" 
    xmlns:xlink="http://www.w3.org/1999/xlink"
    xmlns:krita="http://krita.org/namespaces/svg/krita"
    xmlns:sodipodi="http://sodipodi.sourceforge.net/DTD/sodipodi-0.dtd"
    width="120pt"
    height="120pt"
    viewBox="0 0 120 120">
<defs/>
<path id="shape0" fill="#DECBB7" fill-rule="evenodd" stroke="#DECBB7" stroke-width="0.2496" stroke-linecap="square" stroke-linejoin="bevel" d="M23.7486 93.3592L23.9286 93.5161L24.1002 93.6694L24.2635 93.819L24.4185 93.9649L24.5652 94.1071L24.7037 94.2457L24.8338 94.3806L24.9556 94.5118L25.0691 94.6393L25.1743 94.7631L25.2713 94.8833L25.3599 94.9997L25.4402 95.1125L25.5122 95.2216L25.576 95.3271L25.6314 95.4288L25.6785 95.5269L25.7173 95.6213L25.7528 96.0034L25.7859 96.3809L25.8168 96.7536L25.8456 97.1216L25.8724 97.4848L25.8973 97.8431L25.9206 98.1967L25.9422 98.5453L25.9623 98.8891L25.9811 99.2279L25.9987 99.5618L26.0151 99.8906L26.0306 100.215L26.0453 100.533L26.0593 100.847L26.0726 101.156L26.0855 101.459L26.0981 101.758L26.1105 102.051L26.1228 102.339L26.1351 102.621L26.1476 102.899L26.1604 103.171L26.1736 103.437L26.1874 103.699L26.2019 103.955L26.2172 104.205L26.2334 104.45L26.2506 104.69L26.2691 104.924L26.2889 105.153L26.3101 105.376L26.3329 105.593L26.3573 105.805L26.3836 106.011L26.4119 106.211L26.4422 106.406L26.4747 106.595L26.5095 106.778L26.5468 106.955L26.5867 107.127L26.6293 107.292L26.6748 107.452L26.7231 107.606L26.7746 107.754L26.8293 107.896L26.8873 108.032L26.9488 108.161L27.0139 108.285L27.0828 108.403L27.1554 108.515L27.2321 108.62L27.3128 108.719L27.3978 108.812L27.4872 108.899L27.581 108.979L27.6794 109.054L27.7826 109.121L27.8906 109.183L28.0036 109.238L28.1218 109.287L28.2451 109.329L28.3739 109.365L28.5906 109.433L28.8055 109.493L29.0185 109.545L29.2298 109.588L29.4396 109.623L29.6478 109.651L29.8547 109.671L30.0604 109.684L30.265 109.689L30.4685 109.688L30.6711 109.679L30.873 109.665L31.0742 109.644L31.2748 109.616L31.4749 109.583L31.6748 109.544L31.8744 109.5L32.0739 109.45L32.2734 109.396L32.473 109.336L32.6729 109.272L32.8731 109.203L33.0738 109.13L33.275 109.053L33.477 108.972L33.6797 108.888L33.8834 108.8L34.0881 108.708L34.2939 108.614L34.501 108.517L34.7094 108.417L34.9193 108.315L35.1309 108.211L35.3441 108.105L35.5592 107.997L35.7762 107.887L35.9952 107.776L36.2164 107.664L36.4399 107.551L36.6658 107.437L36.8942 107.322L37.1252 107.207L37.3589 107.092L37.5955 106.978L37.835 106.863L38.0776 106.749L38.3234 106.636L38.5725 106.523L38.825 106.412L39.0811 106.302L39.3407 106.193L39.6042 106.086L39.8715 105.981L40.1427 105.878L40.4181 105.778L40.6977 105.68L40.9816 105.585L41.2699 105.493L41.5628 105.404L41.8603 105.318L42.1626 105.236L42.4698 105.158L42.782 105.084L42.8671 105.078L42.9584 105.07L43.0558 105.061L43.1595 105.049L43.2692 105.036L43.3852 105.021L43.5073 105.004L43.6356 104.985L43.77 104.964L43.9106 104.941L44.0574 104.916L44.2103 104.89L44.3694 104.861L44.3696 104.861L45.0242 105.047L46.2584 105.366L47.5058 105.655L48.766 105.915L50.0385 106.145L51.3229 106.344L52.619 106.512L53.9262 106.649L55.2443 106.754L56.5727 106.827L57.9112 106.868L59.2593 106.876L60.5896 106.859L61.9102 106.811L63.2208 106.73L64.5211 106.618L65.8105 106.475L67.0888 106.301L68.3556 106.097L69.6105 105.862L70.8531 105.599L72.0831 105.306L73.3 104.984L74.5034 104.634L75.6931 104.255L76.8686 103.849L78.0296 103.416L79.1756 102.956L80.3062 102.47L81.4212 101.957L82.5202 101.419L83.6026 100.856L84.6683 100.267L85.7167 99.6546L86.7475 99.0177L87.7604 98.357L88.7549 97.6729L89.7307 96.9659L90.6874 96.2364L91.6246 95.4847L92.5419 94.7112L93.439 93.9163L94.3155 93.1004L95.171 92.2639L96.0051 91.4072L96.8174 90.5306L97.6076 89.6347L98.3753 88.7196L99.1201 87.786L99.8416 86.834L100.539 85.8642L101.213 84.8769L101.863 83.8725L102.487 82.8513L103.087 81.8139L103.661 80.7605L104.209 79.6916L104.73 78.6076L105.225 77.5087L105.693 76.3956L106.134 75.2684L106.547 74.1276L106.931 72.9737L107.287 71.8069L107.614 70.6278L107.911 69.4366L108.179 68.2337L108.417 67.0196L108.624 65.7947L108.801 64.5593L108.946 63.3138L109.06 62.0586L109.141 60.7941L109.191 59.5207L109.207 58.2388L109.191 56.9569L109.143 55.6833L109.065 54.4186L108.955 53.1631L108.814 51.9172L108.643 50.6813L108.442 49.4558L108.212 48.241L107.952 47.0375L107.664 45.8455L107.347 44.6654L107.001 43.4977L106.628 42.3428L106.227 41.201L105.799 40.0727L105.344 38.9584L104.863 37.8583L104.356 36.773L103.822 35.7028L103.263 34.6481L102.679 33.6093L102.071 32.5868L101.437 31.5809L100.78 30.5922L100.099 29.6208L99.3944 28.6674L98.6668 27.7322L97.9165 26.8156L97.1438 25.9181L96.349 25.04L95.5325 24.1817L94.6947 23.3437L93.8358 22.5262L92.9563 21.7298L92.0564 20.9547L91.1366 20.2015L90.1971 19.4704L89.2383 18.7619L88.2605 18.0764L87.2641 17.4142L86.2495 16.7758L85.2169 16.1615L84.1668 15.5718L83.0994 15.007L82.0151 14.4676L80.9142 13.9538L79.7972 13.4662L78.6643 13.0051L77.5158 12.5709L76.3522 12.1639L75.1737 11.7847L73.9808 11.4335L72.7737 11.1108L71.5528 10.817L70.3184 10.5525L69.0709 10.3176L67.8107 10.1127L66.538 9.93827L65.2532 9.79468L63.9566 9.68231L62.6487 9.60156L61.3297 9.55283L60 9.53649L58.6455 9.53731L57.2998 9.5711L55.9631 9.63746L54.636 9.73599L53.3188 9.8663L52.0121 10.028L50.7162 10.2206L49.4315 10.4439L48.1585 10.6973L46.8977 10.9805L45.6494 11.2931L44.414 11.6346L43.1921 12.0048L41.984 12.4031L40.7902 12.8292L39.611 13.2827L38.447 13.7632L37.2985 14.2703L36.1661 14.8035L35.05 15.3626L33.9507 15.947L32.8688 16.5565L31.8045 17.1905L30.7584 17.8487L29.7308 18.5308L28.7222 19.2362L27.733 19.9646L26.7637 20.7156L25.8146 21.4889L24.8862 22.2839L23.979 23.1003L23.0934 23.9377L22.2297 24.7958L21.3884 25.674L20.57 26.5721L19.7749 27.4895L19.0035 28.426L18.2562 29.3811L17.5335 30.3544L16.8358 31.3455L16.1635 32.354L15.5171 33.3796L14.897 34.4217L14.3036 35.4801L13.7373 36.5543L13.1986 37.6439L12.6879 38.7485L12.2056 39.8678L11.7522 41.0012L11.3281 42.1485L10.9337 43.3093L10.5694 44.483L10.2357 45.6694L9.93309 46.868L9.66186 48.0785L9.4225 49.3003L9.21544 50.5332L9.0411 51.7768L8.89992 53.0305L8.79232 54.2942L8.71874 55.5672L8.67959 56.8493L8.67532 58.14L8.68625 59.425L8.73068 60.7017L8.80823 61.9697L8.91851 63.2287L9.06112 64.4781L9.23568 65.7176L9.44179 66.9469L9.67906 68.1654L9.9471 69.3727L10.2455 70.5686L10.5739 71.7526L10.9319 72.9242L11.3191 74.0831L11.7351 75.2289L12.1796 76.3611L12.652 77.4794L13.1521 78.5833L13.6795 79.6725L14.2337 80.7465L14.8143 81.805L15.4211 82.8475L16.0535 83.8737L16.7112 84.8831L17.3938 85.8753L18.1009 86.85L18.8321 87.8067L19.587 88.7449L20.3653 89.6644L21.1665 90.5648L21.9902 91.4455L22.8361 92.3062L23.7038 93.1465L24.2116 93.6147L23.7486 93.3592M29.5174 75.7258L29.3977 75.6505L29.2878 75.5703L29.1876 75.4851L29.0971 75.395L29.0161 75.2997L28.9445 75.1993L28.8823 75.0937L28.8294 74.9829L28.7856 74.8667L28.7509 74.7451L28.7252 74.6181L28.7084 74.4856L28.7005 74.3475L28.7012 74.2038L28.7106 74.0544L28.7285 73.8992L28.7549 73.7383L28.7897 73.5714L28.8327 73.3986L28.8839 73.2198L28.9431 73.035L29.0104 72.844L29.0856 72.6468L29.1686 72.4434L29.2593 72.2337L29.3577 72.0176L29.4636 71.7951L29.5769 71.5661L29.6976 71.3305L29.8256 71.0883L29.9608 70.8395L30.1031 70.5839L30.2523 70.3214L30.4085 70.0522L30.5715 69.776L30.7412 69.4928L30.9175 69.2026L31.1004 68.9053L31.2898 68.6008L31.4855 68.289L31.6875 67.97L31.8956 67.6436L32.1099 67.3098L32.3302 66.9686L32.5563 66.6198L32.7883 66.2633L33.0261 65.8993L33.2694 65.5275L33.5183 65.1479L33.7727 64.7604L34.0325 64.3651L34.2975 63.9618L34.5677 63.5504L34.843 63.131L35.1233 62.7034L35.4085 62.2675L35.6985 61.8234L35.9933 61.371L36.2927 60.9102L36.5966 60.4409L36.9051 59.963L37.2178 59.4766L37.5349 58.9815L37.6897 58.7921L37.8439 58.5953L37.9974 58.3917L38.1503 58.1814L38.3029 57.9649L38.455 57.7424L38.6069 57.5142L38.7586 57.2807L38.9102 57.0422L39.0618 56.799L39.2135 56.5514L39.3653 56.2998L39.5173 56.0444L39.6696 55.7856L39.8224 55.5237L39.9756 55.2591L40.1295 54.9919L40.284 54.7226L40.4392 54.4515L40.5952 54.1788L40.7522 53.905L40.9102 53.6303L41.0692 53.355L41.2295 53.0795L41.391 52.8041L41.5538 52.5291L41.718 52.2548L41.8838 51.9815L42.0512 51.7096L42.2202 51.4393L42.391 51.171L42.5637 50.9051L42.7383 50.6418L42.9149 50.3814L43.0936 50.1242L43.2745 49.8707L43.4577 49.621L43.6433 49.3756L43.8313 49.1347L44.0218 48.8987L44.2149 48.6678L44.4108 48.4424L44.6094 48.2228L44.8109 48.0094L45.0154 47.8024L45.2229 47.6022L45.4335 47.409L45.6474 47.2232L45.8645 47.0452L46.085 46.8752L46.309 46.7136L46.5366 46.5606L46.7678 46.4166L47.0027 46.2819L47.2414 46.1569L47.484 46.0418L47.7306 45.9369L47.9812 45.8427L48.236 45.7593L48.495 45.6872L48.7584 45.6266L49.0261 45.5778L49.2983 45.5413L49.5469 45.5192L49.8014 45.5136L50.0616 45.5241L50.3274 45.5502L50.5986 45.5913L50.8748 45.647L51.156 45.7168L51.4419 45.8002L51.7323 45.8966L52.0269 46.0056L52.3256 46.1268L52.6281 46.2596L52.9343 46.4034L53.244 46.5579L53.5568 46.7225L53.8727 46.8968L54.1913 47.0802L54.5125 47.2723L54.8361 47.4725L55.1619 47.6803L55.4896 47.8954L55.819 48.1171L56.15 48.345L56.4822 48.5786L56.8156 48.8173L57.1499 49.0608L57.4848 49.3085L57.8202 49.5599L58.1558 49.8145L58.4915 50.0719L58.8271 50.3315L59.1622 50.5928L59.4967 50.8554L59.8305 51.1187L60.1632 51.3823L60.4947 51.6457L60.8247 51.9083L61.1531 52.1697L61.4797 52.4294L61.8041 52.6869L62.1263 52.9417L62.446 53.1933L62.7629 53.4412L63.077 53.685L63.3879 53.924L63.6954 54.1579L63.9994 54.3862L64.2996 54.6082L64.5959 54.8237L64.8879 55.032L65.1756 55.2326L65.4586 55.4252L65.7368 55.6091L66.0099 55.7839L66.2778 55.9491L66.5403 56.1042L66.797 56.2487L67.0479 56.3821L67.2927 56.5039L67.5311 56.6137L67.7631 56.7109L67.9883 56.795L68.2065 56.8655L68.8237 56.4669L69.4264 56.0724L70.015 55.6822L70.5896 55.2963L71.1505 54.9148L71.6979 54.5379L72.2322 54.1656L72.7535 53.798L73.2621 53.4352L73.7583 53.0774L74.2422 52.7246L74.7142 52.3769L75.1745 52.0344L75.6234 51.6972L76.061 51.3654L76.4877 51.0391L76.9037 50.7184L77.3092 50.4034L77.7044 50.0942L78.0898 49.7909L78.4654 49.4936L78.8315 49.2023L79.1885 48.9173L79.5364 48.6385L79.8757 48.366L80.2064 48.1001L80.529 47.8407L80.8435 47.588L81.1504 47.342L81.4498 47.1029L81.7419 46.8707L82.0271 46.6456L82.3055 46.4276L82.5774 46.2169L82.8432 46.0135L83.1029 45.8175L83.3569 45.6291L83.6054 45.4483L83.8487 45.2753L84.0869 45.11L84.3205 44.9527L84.5495 44.8034L84.7743 44.6622L84.9951 44.5292L85.2122 44.4046L85.4257 44.2883L85.6361 44.1805L85.8434 44.0814L86.0479 43.9909L86.25 43.9092L86.4498 43.8364L86.6476 43.7726L86.8437 43.7179L87.0382 43.6723L87.2315 43.636L87.4237 43.6091L87.6153 43.5917L87.8062 43.5838L87.997 43.5856L88.1877 43.5972L88.3786 43.6186L88.5701 43.6499L88.7622 43.6913L88.8786 43.8429L88.9819 43.9981L89.0725 44.157L89.1506 44.3194L89.2165 44.4854L89.2704 44.6551L89.3125 44.8283L89.3433 45.0051L89.3628 45.1855L89.3714 45.3694L89.3693 45.5569L89.3568 45.748L89.3341 45.9425L89.3016 46.1406L89.2594 46.3423L89.2079 46.5474L89.1472 46.7561L89.0777 46.9682L88.9996 47.1838L88.9131 47.4029L88.8186 47.6255L88.7162 47.8516L88.6063 48.0811L88.4892 48.314L88.3649 48.5504L88.2339 48.7902L88.0964 49.0335L87.9526 49.2801L87.8029 49.5302L87.6474 49.7837L87.4864 50.0405L87.3202 50.3007L87.149 50.5643L86.9732 50.8313L86.7929 51.1016L86.6084 51.3753L86.4201 51.6523L86.228 51.9327L86.0326 52.2163L85.8341 52.5033L85.6326 52.7936L85.4286 53.0872L85.2221 53.3841L85.0136 53.6842L84.8033 53.9877L84.5914 54.2944L84.3781 54.6043L84.1638 54.9176L83.9487 55.234L83.7331 55.5537L83.5172 55.8766L83.3013 56.2027L83.0856 56.5321L82.8704 56.8646L82.656 57.2003L82.4426 57.5392L82.2304 57.8813L82.0199 58.2266L81.8111 58.575L81.6044 58.9265L81.4 59.2812L81.1982 59.6391L80.9992 60L80.7905 60.3295L80.5831 60.6585L80.3771 60.9868L80.1724 61.3145L79.9691 61.6412L79.767 61.9668L79.5662 62.2913L79.3666 62.6144L79.1682 62.936L78.971 63.2559L78.7749 63.5741L78.58 63.8903L78.3861 64.2044L78.1933 64.5162L78.0015 64.8256L77.8107 65.1325L77.6209 65.4367L77.4321 65.7381L77.2441 66.0364L77.057 66.3316L76.8708 66.6235L76.6854 66.9119L76.5008 67.1968L76.3169 67.4779L76.1339 67.7551L75.9515 68.0282L75.7698 68.2972L75.5887 68.5618L75.4083 68.8219L75.2285 69.0774L75.0492 69.3281L74.8705 69.5738L74.6923 69.8144L74.5146 70.0498L74.3373 70.2798L74.1604 70.5043L73.984 70.7231L73.8079 70.936L73.6321 71.1429L73.4567 71.3437L73.2815 71.5383L73.1066 71.7263L72.9319 71.9078L72.7574 72.0825L72.5831 72.2504L72.4089 72.4112L72.2348 72.5648L72.0608 72.7111L71.8869 72.8499L71.7129 72.9811L71.539 73.1044L71.365 73.2199L71.191 73.3272L71.0168 73.4264L70.8426 73.5171L70.6681 73.5993L70.4936 73.6728L70.3188 73.7375L70.1437 73.7932L69.9684 73.8397L69.7928 73.877L69.6169 73.9049L69.4406 73.9231L69.1908 73.9542L68.9362 73.9691L68.677 73.9683L68.4132 73.9523L68.145 73.9216L67.8726 73.8766L67.5962 73.8177L67.3157 73.7456L67.0315 73.6606L66.7436 73.5632L66.4522 73.4538L66.1574 73.3331L65.8593 73.2013L65.5581 73.0591L65.254 72.9068L64.947 72.745L64.6374 72.5741L64.3252 72.3945L64.0106 72.2069L63.6937 72.0115L63.3748 71.809L63.0538 71.5997L62.731 71.3842L62.4066 71.1629L62.0805 70.9362L61.7531 70.7048L61.4243 70.4689L61.0945 70.2292L60.7636 69.986L60.4319 69.7399L60.0995 69.4913L59.7665 69.2407L59.4331 68.9885L59.0994 68.7353L58.7655 68.4815L58.4317 68.2276L58.0979 67.974L57.7645 67.7212L57.4314 67.4697L57.099 67.22L56.7672 66.9725L56.4362 66.7277L56.1063 66.4861L55.7774 66.2481L55.4498 66.0143L55.1236 65.785L54.799 65.5608L54.476 65.3422L54.1549 65.1295L53.8357 64.9233L53.5187 64.7241L53.2039 64.5323L52.8914 64.3484L52.5815 64.1729L52.2743 64.0062L51.9699 63.8488L51.6684 63.7012L51.37 63.5638L51.0749 63.4372L50.7831 63.3217L50.4948 63.2179L50.2102 63.1263L49.9294 63.0472L49.7653 63.1027L49.601 63.1612L49.4367 63.2225L49.2723 63.2867L49.1077 63.3538L48.9429 63.4237L48.7779 63.4964L48.6127 63.5718L48.4471 63.65L48.2813 63.7309L48.1151 63.8145L47.9486 63.9007L47.7816 63.9895L47.6143 64.0809L47.4464 64.1749L47.2781 64.2714L47.1092 64.3704L46.9398 64.4719L46.7698 64.5758L46.5992 64.6821L46.4279 64.7908L46.256 64.9019L46.0833 65.0153L45.9099 65.1309L45.7357 65.2488L45.5608 65.369L45.3849 65.4914L45.2083 65.6159L45.0307 65.7426L44.8522 65.8713L44.6727 66.0022L44.4923 66.1351L44.3108 66.2701L44.1283 66.407L43.9447 66.5459L43.76 66.6868L43.5742 66.8295L43.3871 66.9741L43.1989 67.1206L43.0094 67.2689L42.8187 67.419L42.6267 67.5708L42.4333 67.7244L42.2386 67.8796L42.0425 68.0366L41.845 68.1951L41.646 68.3553L41.4455 68.5171L41.2435 68.6804L41.04 68.8452L40.8349 69.0115L40.6282 69.1793L40.4199 69.3485L40.2099 69.5192L39.9982 69.6911L39.7847 69.8645L39.5695 70.0391L39.3525 70.2151L39.1337 70.3922L38.9131 70.5707L38.6905 70.7503L38.466 70.931L38.2396 71.1129L38.094 71.2327L37.9486 71.3535L37.8034 71.4752L37.6585 71.5977L37.5137 71.7209L37.3692 71.8446L37.2249 71.9688L37.0809 72.0932L36.937 72.2179L36.7934 72.3426L36.65 72.4672L36.5069 72.5916L36.3639 72.7156L36.2212 72.8393L36.0788 72.9623L35.9365 73.0846L35.7945 73.2061L35.6527 73.3267L35.5112 73.4462L35.3699 73.5644L35.2288 73.6814L35.0879 73.7968L34.9473 73.9107L34.8069 74.0229L34.6667 74.1332L34.5268 74.2416L34.3871 74.3479L34.2476 74.452L34.1084 74.5537L33.9694 74.653L33.8307 74.7497L33.6921 74.8437L33.5538 74.9348L33.4158 75.023L33.278 75.1081L33.1404 75.1899L33.0031 75.2685L32.866 75.3435L32.7291 75.415L32.5925 75.4827L32.4561 75.5466L32.32 75.6066L32.1841 75.6624L32.0485 75.714L31.913 75.7613L31.7779 75.8041L31.6429 75.8423L31.5083 75.8758L31.3738 75.9044L31.2396 75.9281L31.1057 75.9466L30.972 75.96L30.8385 75.9679L30.7053 75.9704L30.5723 75.9674L30.4396 75.9585L30.3071 75.9439L30.1749 75.9232L30.0429 75.8964L29.9112 75.8634L29.7797 75.8241L29.6484 75.7783L29.5174 75.7258" sodipodi:nodetypes="cccccccccccccccccccccccccccccccccccccccccccccccccccccccccccccccccccccccccccccccccccccccccccccccccccccccccccccccccccccccccccccccccccccccccccccccccccccccccccccccccccccccccccccccccccccccccccccccccccccccccccccccccccccccccccccccccccccccccccccccccccccccccccccccccccccccccccccccccccccccccccccccccccccccccccccccccccccccccccccccccccccccccccccccccccccccccccccccccccccccccccccccccccccccccccccccccccccccccccccccccccccccccccccccccccccccccccccccccccccccccccccccccccccccccccccccccccccccccccccccccccccccccccccccccccccccccccccccccccccccccccccccccccccccccccccccccccccccccccccccccccccccccccccccccccccccccccccccccccccccccccccccccccccccccccccccccccccccccccccccccccccccccccccccccccccccccccccccccccccccccccccccccccccccccccccccccccccccccccccccccccccccccccccccccccccccccccccccccccccccccccccccccccccccccccccccccccccccccccccccccccccccccccccccccccccccccccccccccccccccccccccccccccccccccccccccccccccccccccccccccccccccccccccccccccccccccccccccccccccccccccccccccccccccccccccccccccccccccccccccccc"/>
</svg>
