<?xml version="1.0" standalone="no"?>
<!DOCTYPE svg PUBLIC "-//W3C//DTD SVG 20010904//EN" "http://www.w3.org/TR/2001/REC-SVG-20010904/DTD/svg10.dtd">
<!-- Created using Krita: https://krita.org -->
<svg xmlns="http://www.w3.org/2000/svg" 
    xmlns:xlink="http://www.w3.org/1999/xlink"
    xmlns:krita="http://krita.org/namespaces/svg/krita"
    xmlns:sodipodi="http://sodipodi.sourceforge.net/DTD/sodipodi-0.dtd"
    width="120pt"
    height="120pt"
    viewBox="0 0 120 120">
<defs/>
<g id="group0" transform="matrix(0.345061963192722 0 0 0.345061963192722 242.882840492143 384.358245401159)" fill="none">
  <path id="shape0" transform="translate(-440, -910)" fill="#decbb7" stroke="#decbb7" stroke-width="1" stroke-linecap="butt" stroke-linejoin="miter" stroke-miterlimit="2" d="M10 0L10 0C15.519 0 20 4.481 20 10L20 10C20 15.519 15.519 20 10 20L10 20C4.481 20 0 15.519 0 10L0 10C0 4.481 4.481 0 10 0Z" sodipodi:nodetypes="ccccccccc"/>
  <path id="shape1" transform="translate(-580, -910)" fill="#decbb7" stroke="#decbb7" stroke-width="1" stroke-linecap="butt" stroke-linejoin="miter" stroke-miterlimit="2" d="M10 0L70 0C75.519 0 80 4.481 80 10L80 10C80 15.519 75.519 20 70 20L10 20C4.481 20 0 15.519 0 10L0 10C0 4.481 4.481 0 10 0Z" sodipodi:nodetypes="ccccccccc"/>
  <path id="shape2" transform="translate(-600, -970)" fill="#decbb7" stroke="#decbb7" stroke-width="1" stroke-linecap="butt" stroke-linejoin="miter" stroke-miterlimit="2" d="M10 0L10 0C15.519 0 20 4.481 20 10L20 30C20 35.519 15.519 40 10 40L10 40C4.481 40 0 35.519 0 30L0 10C0 4.481 4.481 0 10 0Z" sodipodi:nodetypes="ccccccccc"/>
  <path id="shape3" transform="translate(-640, -990)" fill="#decbb7" stroke="#decbb7" stroke-width="1" stroke-linecap="butt" stroke-linejoin="miter" stroke-miterlimit="2" d="M0.009 29.485C0.28 13.164 13.615 0 30 0L30 0C37.68 0 44.69 2.892 50 7.645C55.31 2.892 62.32 0 70 0L70 0C86.385 0 99.72 13.164 99.991 29.485C99.999 29.655 100 29.828 100 30L100 30L100 50C100 55.519 95.519 60 90 60L90 60C84.481 60 80 55.519 80 50L80 30L80 30C80 24.481 75.519 20 70 20C64.481 20 60 24.481 60 30L60 30L60 30L60 50C60 55.519 55.519 60 50 60L50 60C44.481 60 40 55.519 40 50L40 30L40 30L40 30L40 30L40 30L40 30L40 30L40 30C40 24.481 35.519 20 30 20C24.481 20 20 24.481 20 30L20 30L20 50C20 55.519 15.519 60 10 60L10 60C4.481 60 0 55.519 0 50L0 30L0 30C0 29.828 0.004 29.656 0.009 29.485Z" sodipodi:nodetypes="ccccccccccccccccccccccccccccccccccccccccc"/>
  <path id="shape4" transform="translate(-520, -950)" fill="#decbb7" stroke="#decbb7" stroke-width="1" stroke-linecap="butt" stroke-linejoin="miter" stroke-miterlimit="2" d="M60 20L60 50C60 55.519 55.519 60 50 60L50 60C44.481 60 40 55.519 40 50L40 20L11.18 20C5.01 20 0 15.519 0 10L0 10C0 4.481 5.01 0 11.18 0L88.82 0C94.99 0 100 4.481 100 10L100 10C100 15.519 94.99 20 88.82 20Z" sodipodi:nodetypes="ccccccccccccccc"/>
  <path id="shape5" transform="translate(-480, -990)" fill="#decbb7" stroke="#decbb7" stroke-width="1" stroke-linecap="butt" stroke-linejoin="miter" stroke-miterlimit="2" d="M10 0L50 0C55.519 0 60 4.481 60 10L60 10C60 15.519 55.519 20 50 20L10 20C4.481 20 0 15.519 0 10L0 10C0 4.481 4.481 0 10 0Z" sodipodi:nodetypes="ccccccccc"/>
  <path id="shape6" transform="translate(-640, -910)" fill="#decbb7" stroke="#decbb7" stroke-width="1" stroke-linecap="butt" stroke-linejoin="miter" stroke-miterlimit="2" d="M10 0L30 0C35.519 0 40 4.481 40 10L40 10C40 15.519 35.519 20 30 20L10 20C4.481 20 0 15.519 0 10L0 10C0 4.481 4.481 0 10 0Z" sodipodi:nodetypes="ccccccccc"/>
  <path id="shape7" transform="translate(-525, -990)" fill="#decbb7" stroke="#decbb7" stroke-width="1" stroke-linecap="butt" stroke-linejoin="miter" stroke-miterlimit="2" d="M10 0L15 0C20.519 0 25 4.481 25 10L25 10C25 15.519 20.519 20 15 20L10 20C4.481 20 0 15.519 0 10L0 10C0 4.481 4.481 0 10 0Z" sodipodi:nodetypes="ccccccccc"/>
  <path id="shape8" transform="translate(-680, -1030)" fill="#decbb7" stroke="#decbb7" stroke-width="1" stroke-linecap="butt" stroke-linejoin="miter" stroke-miterlimit="2" d="M20 120L0 120L0 50C0 22.404 22.404 0 50 0L250 0C277.596 0 300 22.404 300 50L300 130C300 157.596 277.596 180 250 180L50 180C22.404 180 0 157.596 0 130L0 110L20 110L20 130C20 146.557 33.443 160 50 160L250 160C266.557 160 280 146.557 280 130L280 50C280 33.443 266.557 20 250 20L50 20C33.443 20 20 33.443 20 50Z" sodipodi:nodetypes="ccccccccccccccccccccc"/>
 </g>
</svg>
